<svg width="71" height="113" viewBox="0 0 71 113" fill="none" xmlns="http://www.w3.org/2000/svg">
<mask id="path-1-inside-1_24_24" fill="white">
<path fill-rule="evenodd" clip-rule="evenodd" d="M24.4792 0C17.8633 0 12.5 5.36325 12.5 11.9792V67.2777C5.02748 71.5138 0 79.4315 0 88.5C0 102.031 11.1929 113 25 113C38.8071 113 50 102.031 50 88.5C50 79.0163 44.5015 70.7911 36.4583 66.7191V11.9792C36.4583 5.36326 31.0951 0 24.4792 0Z"/>
</mask>
<path d="M12.5 67.2777L14.4727 70.7574L16.5 69.6081V67.2777H12.5ZM36.4583 66.7191H32.4583V69.1775L34.6516 70.2878L36.4583 66.7191ZM16.5 11.9792C16.5 7.57239 20.0724 4 24.4792 4V-4C15.6541 -4 8.5 3.15411 8.5 11.9792H16.5ZM16.5 67.2777V11.9792H8.5V67.2777H16.5ZM4 88.5C4 80.9571 8.17717 74.3263 14.4727 70.7574L10.5273 63.7979C1.8778 68.7013 -4 77.906 -4 88.5H4ZM25 109C13.3255 109 4 99.746 4 88.5H-4C-4 104.316 9.06031 117 25 117V109ZM46 88.5C46 99.746 36.6745 109 25 109V117C40.9397 117 54 104.316 54 88.5H46ZM34.6516 70.2878C41.4306 73.7198 46 80.613 46 88.5H54C54 77.4196 47.5724 67.8624 38.265 63.1504L34.6516 70.2878ZM32.4583 11.9792V66.7191H40.4583V11.9792H32.4583ZM24.4792 4C28.8859 4 32.4583 7.57239 32.4583 11.9792H40.4583C40.4583 3.15412 33.3042 -4 24.4792 -4V4Z" fill="#646464" mask="url(#path-1-inside-1_24_24)"/>
<path fill-rule="evenodd" clip-rule="evenodd" d="M24.5 33C22.0147 33 20 35.0147 20 37.5V74.8535C14.174 76.9127 10 82.4689 10 89C10 97.2843 16.7157 104 25 104C33.2843 104 40 97.2843 40 89C40 82.1009 35.3424 76.2897 29 74.5392V37.5C29 35.0147 26.9853 33 24.5 33Z" fill="#C84040"/>
<line x1="44.5" y1="10.5" x2="69.5" y2="10.5" stroke="#646464" stroke-width="3" stroke-linecap="round"/>
<line x1="44.5" y1="19.5" x2="61.5" y2="19.5" stroke="#646464" stroke-width="3" stroke-linecap="round"/>
<line x1="44.5" y1="28.5" x2="69.5" y2="28.5" stroke="#646464" stroke-width="3" stroke-linecap="round"/>
<line x1="44.5" y1="46.5" x2="69.5" y2="46.5" stroke="#646464" stroke-width="3" stroke-linecap="round"/>
<line x1="44.5" y1="37.5" x2="61.5" y2="37.5" stroke="#646464" stroke-width="3" stroke-linecap="round"/>
</svg>
