<svg width="106" height="132" viewBox="0 0 106 132" fill="none" xmlns="http://www.w3.org/2000/svg">
<path d="M104.265 66.4013C104.127 52.92 97.4897 42.855 87.7214 36.2301C77.9981 29.6359 65.1802 26.4405 52.4797 26.5008C39.7796 26.5611 27.0287 29.8777 17.4398 36.504C7.80613 43.1612 1.36402 53.1754 1.50218 66.4323C1.76396 91.552 1.76646 107.13 1.70238 116.453C1.64977 124.107 7.86407 130.5 15.5503 130.5H91.3337C98.5376 130.5 104.404 124.843 104.46 117.598C104.529 108.473 104.534 92.7221 104.265 66.4013Z" stroke="#646464" stroke-width="3"/>
<path d="M5 87.8801C5 80.7761 12.2598 75.7722 19.085 77.7427C33.7108 81.9652 56.631 86.5396 72.5 79.9358C93.1739 71.3324 99.1449 79.8033 100.592 82.9926C100.918 83.7093 101 84.4937 101 85.2808V117C101 122.523 96.5228 127 91 127H15C9.47715 127 5 122.523 5 117V87.8801Z" fill="url(#paint0_linear_29_21)"/>
<line x1="46.5" y1="38.5" x2="60.5" y2="38.5" stroke="#646464" stroke-width="3" stroke-linecap="round"/>
<line x1="28.029" y1="6.61915" x2="34.2389" y2="18.2836" stroke="#646464" stroke-width="3" stroke-linecap="round"/>
<line x1="53.5" y1="14.7145" x2="53.5" y2="1.50001" stroke="#646464" stroke-width="3" stroke-linecap="round"/>
<line x1="71.4153" y1="18.1424" x2="77.8218" y2="6.58471" stroke="#646464" stroke-width="3" stroke-linecap="round"/>
<circle cx="53" cy="105" r="8.5" fill="#646464" stroke="#444444"/>
<line x1="54.801" y1="102.321" x2="55.9609" y2="100.199" stroke="#333333" stroke-linecap="round"/>
<defs>
<linearGradient id="paint0_linear_29_21" x1="53" y1="60.7371" x2="53" y2="127" gradientUnits="userSpaceOnUse">
<stop stop-color="#4122FF"/>
<stop offset="1" stop-color="#56AEFF"/>
</linearGradient>
</defs>
</svg>
