<svg width="100" height="100" viewBox="0 0 100 100" fill="none" xmlns="http://www.w3.org/2000/svg">
<circle cx="50" cy="50" r="48" stroke="#646464" stroke-width="4"/>
<mask id="path-2-inside-1_29_35" fill="white">
<path d="M75.4558 75.4558C76.2369 76.2369 77.5076 76.2403 78.2465 75.4192C82.8107 70.3474 85.9339 64.1296 87.2698 57.4134C88.7361 50.0422 87.9836 42.4016 85.1074 35.458C82.2313 28.5144 77.3607 22.5796 71.1117 18.4042C64.8626 14.2287 57.5157 12 50 12C42.4843 12 35.1374 14.2287 28.8883 18.4042C22.6393 22.5796 17.7687 28.5144 14.8926 35.458C12.0164 42.4016 11.2639 50.0422 12.7302 57.4134C14.0661 64.1296 17.1893 70.3474 21.7535 75.4192C22.4924 76.2403 23.7631 76.2369 24.5442 75.4558L25.2538 74.7462C26.0348 73.9652 26.0297 72.7027 25.2974 71.8757C21.4295 67.5081 18.7804 62.1827 17.6376 56.4373C16.3644 50.0366 17.0178 43.4021 19.5153 37.3728C22.0127 31.3435 26.2419 26.1902 31.6682 22.5645C37.0944 18.9388 43.4739 17.0036 50 17.0036C56.5261 17.0036 62.9056 18.9388 68.3318 22.5645C73.7581 26.1902 77.9873 31.3435 80.4847 37.3728C82.9822 43.4021 83.6356 50.0366 82.3624 56.4373C81.2196 62.1827 78.5705 67.5081 74.7026 71.8757C73.9703 72.7027 73.9652 73.9652 74.7462 74.7462L75.4558 75.4558Z"/>
</mask>
<path d="M75.4558 75.4558C76.2369 76.2369 77.5076 76.2403 78.2465 75.4192C82.8107 70.3474 85.9339 64.1296 87.2698 57.4134C88.7361 50.0422 87.9836 42.4016 85.1074 35.458C82.2313 28.5144 77.3607 22.5796 71.1117 18.4042C64.8626 14.2287 57.5157 12 50 12C42.4843 12 35.1374 14.2287 28.8883 18.4042C22.6393 22.5796 17.7687 28.5144 14.8926 35.458C12.0164 42.4016 11.2639 50.0422 12.7302 57.4134C14.0661 64.1296 17.1893 70.3474 21.7535 75.4192C22.4924 76.2403 23.7631 76.2369 24.5442 75.4558L25.2538 74.7462C26.0348 73.9652 26.0297 72.7027 25.2974 71.8757C21.4295 67.5081 18.7804 62.1827 17.6376 56.4373C16.3644 50.0366 17.0178 43.4021 19.5153 37.3728C22.0127 31.3435 26.2419 26.1902 31.6682 22.5645C37.0944 18.9388 43.4739 17.0036 50 17.0036C56.5261 17.0036 62.9056 18.9388 68.3318 22.5645C73.7581 26.1902 77.9873 31.3435 80.4847 37.3728C82.9822 43.4021 83.6356 50.0366 82.3624 56.4373C81.2196 62.1827 78.5705 67.5081 74.7026 71.8757C73.9703 72.7027 73.9652 73.9652 74.7462 74.7462L75.4558 75.4558Z" stroke="#646464" stroke-width="8" mask="url(#path-2-inside-1_29_35)"/>
<line x1="23" y1="74.0711" x2="30.0711" y2="67" stroke="#646464" stroke-width="4" stroke-linecap="round"/>
<line x1="69" y1="35.0711" x2="76.0711" y2="28" stroke="#646464" stroke-width="4" stroke-linecap="round"/>
<line x1="69.8284" y1="67" x2="76.8995" y2="74.0711" stroke="#646464" stroke-width="4" stroke-linecap="round"/>
<line x1="24.8284" y1="28" x2="31.8995" y2="35.0711" stroke="#646464" stroke-width="4" stroke-linecap="round"/>
<line x1="24.8284" y1="28" x2="31.8995" y2="35.0711" stroke="#646464" stroke-width="4" stroke-linecap="round"/>
<line x1="14" y1="49" x2="24" y2="49" stroke="#646464" stroke-width="4" stroke-linecap="round"/>
<line x1="76" y1="49" x2="86" y2="49" stroke="#646464" stroke-width="4" stroke-linecap="round"/>
<line x1="50" y1="25" x2="50" y2="15" stroke="#646464" stroke-width="4" stroke-linecap="round"/>
<line x1="50.3618" y1="49.2249" x2="60.1948" y2="41.6382" stroke="#FF4F4F" stroke-width="4" stroke-linecap="round"/>
<circle cx="42" cy="76" r="4" fill="#303030"/>
<circle cx="58" cy="76" r="4" fill="#303030"/>
</svg>
