<svg width="110" height="81" viewBox="0 0 110 81" fill="none" xmlns="http://www.w3.org/2000/svg">
<line x1="2.5" y1="47.5" x2="107.5" y2="47.5" stroke="#43A5FF" stroke-width="5" stroke-linecap="round"/>
<line x1="21.0047" y1="62.5" x2="88.9953" y2="62.5" stroke="#43A5FF" stroke-width="5" stroke-linecap="round"/>
<line x1="39.5093" y1="78.5" x2="70.4906" y2="78.5" stroke="#43A5FF" stroke-width="5" stroke-linecap="round"/>
<path d="M91 37C91 32.1411 90.0688 27.3298 88.2597 22.8407C86.4505 18.3517 83.7988 14.2728 80.4558 10.837C77.1129 7.40128 73.1443 4.67588 68.7766 2.81646C64.4089 0.957033 59.7276 -2.1239e-07 55 0C50.2724 2.1239e-07 45.5911 0.957034 41.2234 2.81646C36.8557 4.67588 32.8871 7.40128 29.5442 10.8371C26.2012 14.2728 23.5495 18.3517 21.7403 22.8407C19.9312 27.3298 19 32.1411 19 37L55 37H91Z" fill="url(#paint0_linear_4_72)"/>
<path d="M56.0607 5.93934C55.4749 5.35355 54.5251 5.35355 53.9393 5.93934L44.3934 15.4853C43.8076 16.0711 43.8076 17.0208 44.3934 17.6066C44.9792 18.1924 45.9289 18.1924 46.5147 17.6066L55 9.12132L63.4853 17.6066C64.0711 18.1924 65.0208 18.1924 65.6066 17.6066C66.1924 17.0208 66.1924 16.0711 65.6066 15.4853L56.0607 5.93934ZM53.5 32C53.5 32.8284 54.1716 33.5 55 33.5C55.8284 33.5 56.5 32.8284 56.5 32H53.5ZM53.5 7V32H56.5V7H53.5Z" fill="black"/>
<defs>
<linearGradient id="paint0_linear_4_72" x1="55" y1="0" x2="55" y2="37" gradientUnits="userSpaceOnUse">
<stop stop-color="#FF3D00"/>
<stop offset="1" stop-color="#FFB800"/>
</linearGradient>
</defs>
</svg>
