<svg width="110" height="81" viewBox="0 0 110 81" fill="none" xmlns="http://www.w3.org/2000/svg">
<line x1="2.5" y1="47.5" x2="107.5" y2="47.5" stroke="#43A5FF" stroke-width="5" stroke-linecap="round"/>
<line x1="21.0047" y1="62.5" x2="88.9953" y2="62.5" stroke="#43A5FF" stroke-width="5" stroke-linecap="round"/>
<line x1="39.5093" y1="78.5" x2="70.4907" y2="78.5" stroke="#43A5FF" stroke-width="5" stroke-linecap="round"/>
<path d="M91 37C91 32.1411 90.0688 27.3298 88.2597 22.8407C86.4505 18.3517 83.7988 14.2728 80.4558 10.837C77.1129 7.40128 73.1443 4.67588 68.7766 2.81646C64.4089 0.957033 59.7276 -2.1239e-07 55 0C50.2724 2.1239e-07 45.5911 0.957034 41.2234 2.81646C36.8557 4.67588 32.8871 7.40128 29.5442 10.8371C26.2012 14.2728 23.5495 18.3517 21.7403 22.8407C19.9312 27.3298 19 32.1411 19 37L55 37H91Z" fill="url(#paint0_linear_2_65)"/>
<path d="M53.9393 33.0607C54.5251 33.6464 55.4749 33.6464 56.0607 33.0607L65.6066 23.5147C66.1924 22.9289 66.1924 21.9792 65.6066 21.3934C65.0208 20.8076 64.0711 20.8076 63.4853 21.3934L55 29.8787L46.5147 21.3934C45.9289 20.8076 44.9792 20.8076 44.3934 21.3934C43.8076 21.9792 43.8076 22.9289 44.3934 23.5147L53.9393 33.0607ZM56.5 7C56.5 6.17157 55.8284 5.5 55 5.5C54.1716 5.5 53.5 6.17157 53.5 7H56.5ZM56.5 32V7H53.5V32H56.5Z" fill="black"/>
<defs>
<linearGradient id="paint0_linear_2_65" x1="55" y1="0" x2="55" y2="37" gradientUnits="userSpaceOnUse">
<stop stop-color="#FF3D00"/>
<stop offset="1" stop-color="#FFB800"/>
</linearGradient>
</defs>
</svg>
