<svg width="108" height="92" viewBox="0 0 108 92" fill="none" xmlns="http://www.w3.org/2000/svg">
<mask id="path-1-inside-1_11_84" fill="white">
<path d="M50.9961 30.4328C50.8067 31.7498 51.7027 33.0032 53.0332 33C55.1224 32.9949 57.1967 32.5097 59.1201 31.5642C61.7733 30.2599 64.0249 28.1359 65.6013 25.4504C67.1777 22.7649 68.011 19.6336 67.9999 16.4369C67.9888 13.2402 67.1337 10.116 65.5387 7.4438C63.9437 4.77164 61.6773 2.66669 59.0152 1.38478C56.353 0.102881 53.4096 -0.300768 50.5428 0.222899C47.6759 0.746567 45.0091 2.175 42.8665 4.33458C41.2111 6.00309 39.9236 8.05253 39.0896 10.3261C38.6747 11.4572 39.3857 12.646 40.5449 12.9741V12.9741C41.7822 13.3244 43.0433 12.5567 43.5694 11.3834C44.1433 10.1035 44.9304 8.94515 45.8962 7.97175C47.3982 6.45784 49.2677 5.45647 51.2774 5.08937C53.2871 4.72227 55.3505 5.00523 57.2168 5.90388C59.083 6.80252 60.6718 8.27815 61.7899 10.1514C62.9081 12.0246 63.5075 14.2148 63.5153 16.4558C63.5231 18.6967 62.9389 20.8919 61.8338 22.7745C60.7287 24.6571 59.1503 26.146 57.2903 27.0603C56.2059 27.5934 55.053 27.9178 53.8812 28.0262C52.5 28.154 51.1936 29.0598 50.9961 30.4328V30.4328Z"/>
</mask>
<path d="M50.9961 30.4328C50.8067 31.7498 51.7027 33.0032 53.0332 33C55.1224 32.9949 57.1967 32.5097 59.1201 31.5642C61.7733 30.2599 64.0249 28.1359 65.6013 25.4504C67.1777 22.7649 68.011 19.6336 67.9999 16.4369C67.9888 13.2402 67.1337 10.116 65.5387 7.4438C63.9437 4.77164 61.6773 2.66669 59.0152 1.38478C56.353 0.102881 53.4096 -0.300768 50.5428 0.222899C47.6759 0.746567 45.0091 2.175 42.8665 4.33458C41.2111 6.00309 39.9236 8.05253 39.0896 10.3261C38.6747 11.4572 39.3857 12.646 40.5449 12.9741V12.9741C41.7822 13.3244 43.0433 12.5567 43.5694 11.3834C44.1433 10.1035 44.9304 8.94515 45.8962 7.97175C47.3982 6.45784 49.2677 5.45647 51.2774 5.08937C53.2871 4.72227 55.3505 5.00523 57.2168 5.90388C59.083 6.80252 60.6718 8.27815 61.7899 10.1514C62.9081 12.0246 63.5075 14.2148 63.5153 16.4558C63.5231 18.6967 62.9389 20.8919 61.8338 22.7745C60.7287 24.6571 59.1503 26.146 57.2903 27.0603C56.2059 27.5934 55.053 27.9178 53.8812 28.0262C52.5 28.154 51.1936 29.0598 50.9961 30.4328V30.4328Z" fill="#499DFF" stroke="#499DFF" stroke-width="2.6" mask="url(#path-1-inside-1_11_84)"/>
<mask id="path-2-inside-2_11_84" fill="white">
<path d="M57.1541 81.0892C55.8586 81.7289 55.3118 83.3122 56.1372 84.498C57.49 86.4414 59.2287 88.0978 61.2546 89.3584C64.024 91.0817 67.22 91.9966 70.4818 92C73.7436 92.0034 76.9415 91.0951 79.7145 89.3776C82.4876 87.6601 84.7254 85.2017 86.1755 82.28C87.6256 79.3582 88.2303 76.0893 87.9213 72.8422C87.6123 69.595 86.4019 66.4988 84.4267 63.903C82.4516 61.3072 79.7902 59.3151 76.743 58.1515C74.514 57.3003 72.1434 56.9172 69.7775 57.0149C68.3339 57.0746 67.4035 58.4675 67.6775 59.8861V59.8861C67.9515 61.3047 69.331 62.2027 70.7754 62.2352C72.172 62.2665 73.5595 62.5364 74.8765 63.0393C77.0127 63.855 78.8783 65.2515 80.263 67.0713C81.6476 68.891 82.4961 71.0615 82.7127 73.3378C82.9294 75.6142 82.5055 77.9057 81.4889 79.954C80.4723 82.0022 78.9036 83.7255 76.9596 84.9295C75.0156 86.1335 72.7739 86.7703 70.4873 86.7679C68.2006 86.7655 65.9602 86.1241 64.0187 84.9161C62.8218 84.1713 61.7679 83.2294 60.8983 82.1361C59.999 81.0053 58.4496 80.4496 57.1541 81.0892V81.0892Z"/>
</mask>
<path d="M57.1541 81.0892C55.8586 81.7289 55.3118 83.3122 56.1372 84.498C57.49 86.4414 59.2287 88.0978 61.2546 89.3584C64.024 91.0817 67.22 91.9966 70.4818 92C73.7436 92.0034 76.9415 91.0951 79.7145 89.3776C82.4876 87.6601 84.7254 85.2017 86.1755 82.28C87.6256 79.3582 88.2303 76.0893 87.9213 72.8422C87.6123 69.595 86.4019 66.4988 84.4267 63.903C82.4516 61.3072 79.7902 59.3151 76.743 58.1515C74.514 57.3003 72.1434 56.9172 69.7775 57.0149C68.3339 57.0746 67.4035 58.4675 67.6775 59.8861V59.8861C67.9515 61.3047 69.331 62.2027 70.7754 62.2352C72.172 62.2665 73.5595 62.5364 74.8765 63.0393C77.0127 63.855 78.8783 65.2515 80.263 67.0713C81.6476 68.891 82.4961 71.0615 82.7127 73.3378C82.9294 75.6142 82.5055 77.9057 81.4889 79.954C80.4723 82.0022 78.9036 83.7255 76.9596 84.9295C75.0156 86.1335 72.7739 86.7703 70.4873 86.7679C68.2006 86.7655 65.9602 86.1241 64.0187 84.9161C62.8218 84.1713 61.7679 83.2294 60.8983 82.1361C59.999 81.0053 58.4496 80.4496 57.1541 81.0892V81.0892Z" fill="#499DFF" stroke="#499DFF" stroke-width="2.6" mask="url(#path-2-inside-2_11_84)"/>
<path d="M12 30.5C12 29.1193 13.1193 28 14.5 28H59V29C59 31.2091 57.2091 33 55 33H14.5C13.1193 33 12 31.8807 12 30.5V30.5Z" fill="#499DFF"/>
<path d="M30 59.5C30 60.8807 31.1193 62 32.5 62H74V61C74 58.7909 72.2091 57 70 57H32.5C31.1193 57 30 58.1193 30 59.5V59.5Z" fill="#499DFF"/>
<mask id="path-5-inside-3_11_84" fill="white">
<path d="M88.1605 44.9775C87.9401 46.5293 88.9949 48.0061 90.5623 47.9999C92.8703 47.9907 95.1636 47.4728 97.307 46.4644C100.317 45.0484 102.91 42.7221 104.795 39.7485C106.679 36.775 107.779 33.273 107.97 29.639C108.161 26.0049 107.435 22.3839 105.875 19.1858C104.314 15.9877 101.982 13.3401 99.1406 11.5427C96.2997 9.74535 93.064 8.86995 89.7997 9.01562C86.5355 9.16128 83.373 10.3222 80.6701 12.3669C78.5902 13.9405 76.8464 15.9891 75.5489 18.3659C74.8848 19.5823 75.4633 21.0592 76.7054 21.6738V21.6738C78.0969 22.3624 79.7619 21.6965 80.6172 20.4008C81.4397 19.1546 82.4499 18.0672 83.609 17.1903C85.5038 15.7569 87.7208 14.9431 90.0091 14.841C92.2974 14.7389 94.5657 15.3525 96.5573 16.6125C98.5488 17.8725 100.184 19.7286 101.278 21.9705C102.372 24.2125 102.881 26.7509 102.747 29.2984C102.613 31.846 101.842 34.3009 100.521 36.3855C99.2 38.47 97.3817 40.1009 95.2718 41.0935C94.0898 41.6496 92.8428 41.9929 91.5768 42.1172C89.9414 42.2778 88.3915 43.3506 88.1605 44.9775V44.9775Z"/>
</mask>
<path d="M88.1605 44.9775C87.9401 46.5293 88.9949 48.0061 90.5623 47.9999C92.8703 47.9907 95.1636 47.4728 97.307 46.4644C100.317 45.0484 102.91 42.7221 104.795 39.7485C106.679 36.775 107.779 33.273 107.97 29.639C108.161 26.0049 107.435 22.3839 105.875 19.1858C104.314 15.9877 101.982 13.3401 99.1406 11.5427C96.2997 9.74535 93.064 8.86995 89.7997 9.01562C86.5355 9.16128 83.373 10.3222 80.6701 12.3669C78.5902 13.9405 76.8464 15.9891 75.5489 18.3659C74.8848 19.5823 75.4633 21.0592 76.7054 21.6738V21.6738C78.0969 22.3624 79.7619 21.6965 80.6172 20.4008C81.4397 19.1546 82.4499 18.0672 83.609 17.1903C85.5038 15.7569 87.7208 14.9431 90.0091 14.841C92.2974 14.7389 94.5657 15.3525 96.5573 16.6125C98.5488 17.8725 100.184 19.7286 101.278 21.9705C102.372 24.2125 102.881 26.7509 102.747 29.2984C102.613 31.846 101.842 34.3009 100.521 36.3855C99.2 38.47 97.3817 40.1009 95.2718 41.0935C94.0898 41.6496 92.8428 41.9929 91.5768 42.1172C89.9414 42.2778 88.3915 43.3506 88.1605 44.9775V44.9775Z" fill="#499DFF" stroke="#499DFF" stroke-width="2.6" mask="url(#path-5-inside-3_11_84)"/>
<path d="M0 45C0 43.3431 1.34315 42 3 42H94V44C94 46.2091 92.2091 48 90 48H3C1.34315 48 0 46.6569 0 45V45Z" fill="#499DFF"/>
</svg>
